<svg width="35" height="35" viewBox="0 0 35 35" fill="none" xmlns="http://www.w3.org/2000/svg">
    <g clip-path="url(#clip0_1395_103)">
    <path fill-rule="evenodd" clip-rule="evenodd" d="M34.7398 17.3699C34.7398 22.0272 32.9068 26.2563 29.9231 29.3755C26.7717 32.6696 22.337 34.7254 17.4217 34.7398C17.4045 34.7398 17.3872 34.7398 17.3699 34.7398C17.3526 34.7398 17.3353 34.7398 17.3181 34.7398C12.4029 34.7254 7.96797 32.6696 4.81675 29.3755C1.83292 26.2563 0 22.0272 0 17.3699C0 7.77678 7.77678 0 17.3699 0C26.9631 0 34.7398 7.77678 34.7398 17.3699ZM27.8981 26.0549C25.395 23.0237 21.608 21.092 17.3699 21.092C13.1318 21.092 9.34486 23.0237 6.84163 26.0549C9.34486 29.0859 13.1318 31.0177 17.3699 31.0177C21.608 31.0177 25.395 29.0859 27.8981 26.0549ZM17.3702 18.6105C20.7963 18.6105 23.5737 15.8331 23.5737 12.407C23.5737 8.98088 20.7963 6.20346 17.3702 6.20346C13.9441 6.20346 11.1667 8.98088 11.1667 12.407C11.1667 15.8331 13.9441 18.6105 17.3702 18.6105Z" fill="#0B83D9"/>
    </g>
    <defs>
    <clipPath id="clip0_1395_103">
    <rect width="34.7398" height="34.7398" fill="white"/>
    </clipPath>
    </defs>
</svg>
