<svg width="110" height="51" viewBox="0 0 110 51" fill="none" xmlns="http://www.w3.org/2000/svg">
    <rect x="1.25" y="1.7373" width="107.278" height="47.5253" rx="23.7627" fill="white" stroke="#0B83D9" stroke-width="2.5"/>
    <g clip-path="url(#clip0_1026_431)">
    <rect width="34.7398" height="34.7398" transform="translate(20.8438 7.4353)" fill="white"/>
    <path fill-rule="evenodd" clip-rule="evenodd" d="M55.5836 24.8052C55.5836 29.4625 53.7505 33.6916 50.7669 36.8108C47.6155 40.1049 43.1807 42.1607 38.2655 42.1751C38.2482 42.1751 38.2309 42.1751 38.2137 42.1751C38.1964 42.1751 38.1791 42.1751 38.1618 42.1751C33.2466 42.1607 28.8117 40.1049 25.6605 36.8108C22.6767 33.6916 20.8438 29.4625 20.8438 24.8052C20.8438 15.2121 28.6205 7.4353 38.2137 7.4353C47.8068 7.4353 55.5836 15.2121 55.5836 24.8052ZM48.7418 33.4902C46.2388 30.459 42.4518 28.5273 38.2137 28.5273C33.9755 28.5273 30.1886 30.459 27.6854 33.4902C30.1886 36.5212 33.9755 38.453 38.2137 38.453C42.4518 38.453 46.2388 36.5212 48.7418 33.4902ZM38.214 26.0458C41.6401 26.0458 44.4175 23.2684 44.4175 19.8423C44.4175 16.4162 41.6401 13.6388 38.214 13.6388C34.7878 13.6388 32.0104 16.4162 32.0104 19.8423C32.0104 23.2684 34.7878 26.0458 38.214 26.0458Z" fill="#0B83D9"/>
    </g>
    <g clip-path="url(#clip1_1026_431)">
    <rect width="16.6751" height="16.6751" transform="translate(74.3428 18.552)" fill="white"/>
    <path d="M75.0376 33.8375L82.6804 26.1948L75.0376 18.552" stroke="#0B83D9" stroke-width="3" stroke-linecap="round" stroke-linejoin="round"/>
    </g>
    <defs>
    <clipPath id="clip0_1026_431">
    <rect width="34.7398" height="34.7398" fill="white" transform="translate(20.8438 7.4353)"/>
    </clipPath>
    <clipPath id="clip1_1026_431">
    <rect width="16.6751" height="16.6751" fill="white" transform="translate(74.3428 18.552)"/>
    </clipPath>
    </defs>
</svg>
