<svg width="43" height="44" viewBox="0 0 43 44" fill="none" xmlns="http://www.w3.org/2000/svg">
    <mask id="path-1-inside-1_1292_87" fill="white">
    <path d="M23.456 0.543812C23.4263 0.564339 23.404 0.639599 23.404 0.701176C23.404 0.762756 23.2999 0.885914 23.1734 0.968018C22.928 1.13223 22.7347 1.48118 22.7347 1.74802C22.7347 1.83697 22.6529 1.98065 22.5487 2.0696C22.4298 2.17223 22.3851 2.26118 22.4298 2.32276C22.4595 2.37749 22.4521 2.56223 22.4074 2.73328C22.3331 3.04118 22.3405 3.05486 22.5711 3.23276C22.9206 3.4996 22.8462 3.68434 22.2661 4.03329C21.4407 4.53276 20.8531 5.08697 20.5111 5.68908C20.3103 6.04486 20.2061 6.31855 20.2061 6.49645C20.2061 6.64013 20.1764 6.79066 20.1466 6.83855C20.0872 6.92066 19.3955 7.09171 19.336 7.03698C19.3137 7.02329 19.3583 6.9275 19.4253 6.83171C19.522 6.70171 19.5443 6.57855 19.5071 6.38013C19.4625 6.12013 19.4699 6.10645 19.6558 6.10645C19.8492 6.10645 19.8492 6.09961 19.8046 5.76434C19.7525 5.39487 19.8194 5.32644 20.0574 5.52486C20.1764 5.62066 20.1913 5.61381 20.2285 5.38118C20.2879 5.06644 20.1466 4.75855 19.7674 4.33434C19.6112 4.16329 19.455 3.94434 19.4253 3.84855C19.3955 3.75276 19.2319 3.54065 19.0609 3.37644L18.756 3.08223L19.0311 3.12328C19.2765 3.16434 19.2988 3.1575 19.2617 3.03434C19.1947 2.8017 18.8898 2.57592 18.4139 2.41854C18.109 2.30907 17.9453 2.22013 17.9007 2.11065C17.8338 1.94644 17.6999 1.88486 16.9934 1.69328C16.6737 1.60434 16.4877 1.59749 16.1977 1.64539L15.8184 1.70697L15.5953 1.32381C15.4689 1.11171 15.2904 0.851707 15.1937 0.742233L15.0227 0.536964L14.9632 1.06381C14.9409 1.35802 14.8665 1.63171 14.8144 1.68644C14.7624 1.73434 14.5021 1.79591 14.2418 1.81644C13.9146 1.85065 13.7361 1.90539 13.6543 1.99434C13.5874 2.0696 13.4089 2.17907 13.2527 2.23381C13.104 2.29539 12.7544 2.48013 12.4793 2.64434C11.7059 3.1096 11.215 3.34223 10.635 3.4996C10.2929 3.58855 10.0698 3.69802 10.0177 3.78013C9.98051 3.84855 9.94333 4.18381 9.94333 4.51907C9.94333 5.23066 10.0028 5.32644 10.449 5.26487C10.7168 5.2375 10.7316 5.24434 10.7093 5.38118C10.6201 5.79855 11.7282 5.90118 12.0703 5.51118C12.2116 5.34697 12.2859 5.32645 12.866 5.29908C13.3568 5.27855 13.5725 5.29223 13.7659 5.38118C13.9072 5.44276 14.0559 5.49065 14.1005 5.49065C14.3013 5.49065 14.1079 5.85329 13.5799 6.4896C13.1486 7.00276 12.4198 8.46698 12.2859 9.06224C12.2636 9.16487 12.0926 9.45224 11.9066 9.70539C11.7207 9.95855 11.5199 10.2938 11.4604 10.4443C11.4009 10.6017 11.2671 10.8754 11.1704 11.0601C11.0663 11.2517 10.9845 11.4843 10.9845 11.587C10.9845 11.6896 10.9473 11.8607 10.9101 11.9633L10.8283 12.148L10.0698 12.107C9.65329 12.0796 9.16246 12.0386 8.97654 12.018C8.67163 11.9838 8.6047 11.9975 8.38903 12.1686C8.1808 12.3259 8.06181 12.3601 7.71972 12.367C7.48918 12.3738 7.20658 12.4217 7.08015 12.4833C6.96116 12.5449 6.47777 12.9349 6.00925 13.3454C5.52586 13.7765 4.97553 14.1938 4.72268 14.3238C4.01618 14.6865 3.99387 14.7207 3.99387 15.2954C3.99387 15.5759 3.95669 15.9728 3.91207 16.1849C3.82282 16.5749 3.82282 16.5749 4.07568 16.8417C4.21697 16.9854 4.44008 17.2386 4.58138 17.3959L4.84167 17.6901L4.97553 17.5328C5.0499 17.4507 5.1912 17.1359 5.29531 16.8417C5.48123 16.3012 5.48123 16.3012 5.3325 16.1643C5.25069 16.0891 5.18376 15.9796 5.18376 15.9249C5.18376 15.8701 5.11683 15.7949 5.03503 15.7538C4.82679 15.6512 4.8491 15.5691 5.09452 15.528C5.22838 15.5007 5.37712 15.3912 5.49611 15.227C5.99437 14.5359 6.9686 13.8107 7.58586 13.6738C7.78665 13.6328 7.78665 13.6328 7.74203 13.9201C7.6751 14.358 7.52636 14.7891 7.27351 15.3296C6.99835 15.9112 6.98347 16.1165 7.22889 16.5543C7.32557 16.7322 7.45199 17.0333 7.50405 17.2249C7.58586 17.5396 7.80896 17.8749 7.94282 17.8749C7.97257 17.8749 8.27004 18.0322 8.59726 18.217L9.19965 18.5591L9.27401 18.388C9.37069 18.1554 9.37069 17.8886 9.26658 17.348C9.19965 17.0059 9.15502 16.917 9.05091 16.917C8.97654 16.917 8.86499 16.8417 8.79806 16.7528C8.72369 16.6433 8.59726 16.5749 8.44109 16.5612C8.21055 16.5407 8.04694 16.3696 8.26261 16.3696C8.44109 16.3696 8.47827 16.2465 8.50058 15.5212C8.52289 14.837 8.67163 14.0912 8.81293 13.9612C8.85755 13.9201 9.14759 14.0159 9.65329 14.2417C10.0772 14.4333 10.4937 14.5907 10.5755 14.5907C10.7837 14.5907 11.4679 14.8917 11.8695 15.1654C12.2264 15.4049 12.866 15.617 13.2304 15.617C13.5056 15.617 13.5056 15.788 13.223 16.137C12.6429 16.8622 12.1744 17.1017 11.1853 17.1701C10.5011 17.218 10.33 17.3001 10.4565 17.5191C10.5978 17.7654 10.9696 17.8886 11.7207 17.9433C12.1149 17.9707 12.5611 18.0459 12.7173 18.1007C12.8734 18.1622 13.0445 18.1965 13.0965 18.1759C13.2155 18.1349 13.3271 17.8954 13.4089 17.5328C13.4833 17.177 13.6171 16.9717 14.0708 16.5133C14.4575 16.137 14.5021 16.1096 14.7103 16.1643C14.8293 16.1986 15.2383 16.4859 15.6102 16.8144C16.4729 17.5601 16.986 17.8749 17.804 18.1486C18.3544 18.3333 19.5517 18.6343 20.3846 18.7986L20.6003 18.8396L20.3326 19.0038C20.1318 19.1338 20.0574 19.2365 20.0277 19.428C19.9607 19.7975 20.2285 20.8854 20.4739 21.2822C20.5854 21.4601 20.8308 21.8638 21.0168 22.1786C21.2027 22.5001 21.5745 22.9654 21.8497 23.2391C22.1174 23.5059 22.3628 23.8138 22.3926 23.9165C22.4669 24.2107 22.2141 24.6691 21.8422 24.8949L21.5299 25.0865L20.4516 24.8265C19.0609 24.498 18.0197 24.4296 14.5913 24.4501C13.1635 24.4638 10.3895 24.4433 8.44109 24.4159C5.14658 24.3612 4.87885 24.368 4.69293 24.4707C4.39546 24.6554 4.2021 25.1344 4.15748 25.8186C4.12773 26.3386 4.14261 26.4549 4.32109 26.8586C4.50701 27.2965 4.66318 28.3159 4.63344 28.9591C4.626 29.1917 4.63344 29.1986 4.98297 29.2465C5.4738 29.308 5.82333 29.4449 6.56701 29.8554C7.34044 30.2865 7.57842 30.5533 7.6156 31.0323C7.65279 31.4359 7.56354 31.6138 6.88679 32.5307C6.039 33.6733 4.8491 34.5081 2.69986 35.4659C1.77026 35.8765 1.39842 36.0817 1.14557 36.3212C0.104413 37.2928 -0.245118 39.3181 0.171344 41.9591C0.282896 42.6433 0.46138 43.4575 0.513438 43.4986C0.535748 43.5123 31.3391 43.4233 39.8394 43.3754L43 43.3617L42.9926 43.0196C42.9777 42.5749 42.5092 41.2954 41.9291 40.1117C41.0887 38.4149 39.6088 36.0133 37.8314 33.4612C37.11 32.428 36.9464 32.2433 36.6861 32.1202C36.2176 31.9149 35.5483 31.4223 34.8939 30.8065L34.2989 30.2454L34.7079 30.2865C35.2657 30.3344 35.7119 30.2523 35.7045 30.1017C35.6896 29.9991 35.816 29.9512 36.002 29.9786C36.1879 30.0128 36.649 29.8965 36.6192 29.828C36.5969 29.7802 36.5597 29.698 36.53 29.6365C36.4928 29.5475 36.5448 29.5133 36.7679 29.4723C37.0505 29.4244 37.0505 29.4244 36.8646 29.3354C36.701 29.2533 36.701 29.2465 36.8349 29.2191C36.9464 29.1986 36.9167 29.1644 36.6936 29.0617C36.4258 28.9454 36.2771 28.788 36.3589 28.7128C36.3812 28.6991 36.5374 28.7265 36.7085 28.788C37.0059 28.8838 37.0357 28.877 37.2439 28.7402C37.3629 28.658 37.4596 28.5828 37.4596 28.5691C37.4596 28.5554 37.1844 28.2886 36.8497 27.9738C35.5334 26.7491 34.8864 26.1128 34.7303 25.9075C34.3287 25.3807 33.637 23.2733 33.4511 22.0212C33.2801 20.8991 32.9231 19.9822 32.2687 18.9696C32.0307 18.6138 31.7778 18.2033 31.696 18.0596C31.4804 17.6628 30.7069 17.0333 30.2905 16.9101C29.9633 16.8144 29.9261 16.7733 29.7699 16.4312C29.584 16.0207 28.5949 14.4743 28.1859 13.9543C27.8438 13.5301 27.3529 13.188 26.8175 13.0101C26.4456 12.887 26.349 12.8117 26.1705 12.5449C25.8507 12.0659 25.5904 11.4228 25.3822 10.5607L25.1962 9.78066L25.3747 9.58224C25.4714 9.47277 25.5755 9.27434 25.6053 9.1375C25.7466 8.43276 25.3227 4.91592 25.0252 4.34118C24.936 4.17013 24.75 3.97171 24.5864 3.86908C24.4228 3.77328 24.2964 3.68434 24.2964 3.67065C24.2964 3.66381 24.4079 3.67065 24.5492 3.69118C24.7798 3.72539 24.817 3.70486 24.9285 3.50645C25.0624 3.26697 25.107 3.03434 25.1665 2.32276C25.1963 1.91223 25.1739 1.8096 25.0029 1.48118C24.8467 1.18697 24.7054 1.05013 24.3633 0.83802C24.1179 0.687492 23.8725 0.584862 23.8204 0.605389C23.7609 0.625916 23.694 0.612232 23.6643 0.571178C23.6122 0.489075 23.523 0.475391 23.456 0.543812ZM29.9038 19.428C30.0079 19.5717 30.1269 19.8522 30.1715 20.0438C30.2235 20.2491 30.3797 20.5707 30.5508 20.7965C30.9003 21.2686 30.9449 21.4191 31.1011 22.5275C31.2796 23.8754 31.8001 25.5038 32.7074 27.6112C33.0347 28.3501 33.2949 28.9728 33.2949 28.9933C33.2949 29.0138 33.109 28.8907 32.8859 28.7265C32.291 28.2749 31.6217 27.8712 31.1903 27.6933C30.7292 27.5086 28.9221 26.968 27.4124 26.5644L26.3192 26.2701L26.8472 25.5791C27.1373 25.2028 27.643 24.6075 27.9776 24.2723C28.3123 23.9301 28.6246 23.588 28.6692 23.5059C28.87 23.157 28.7287 22.8765 28.1784 22.5686C28.0074 22.4728 27.762 22.2607 27.6355 22.0965C27.3975 21.8022 26.9736 21.0428 26.9736 20.9196C26.9736 20.8786 27.167 20.8101 27.405 20.7622C28.2305 20.598 28.937 20.1601 29.3609 19.5512C29.4947 19.3459 29.636 19.1817 29.6658 19.1749C29.6955 19.1749 29.8071 19.2912 29.9038 19.428ZM24.6459 22.1238C24.8318 22.2812 25.1888 22.4933 25.4342 22.5959C25.8879 22.7875 26.2077 23.0338 26.3713 23.328C26.6092 23.7659 26.2895 24.5117 25.4863 25.3875L24.9731 25.9349L24.3187 25.7707C23.9617 25.6817 23.5676 25.5791 23.4486 25.5517C23.2478 25.5038 23.2775 25.4833 23.9171 25.237C24.4451 25.0386 24.6236 24.9359 24.7054 24.7854C24.8765 24.4844 24.8467 24.3817 24.4451 23.7933C24.051 23.2186 23.8799 22.7944 23.7981 22.1991L23.7535 21.8433H24.0361C24.2592 21.8433 24.3856 21.898 24.6459 22.1238Z"/>
    </mask>
    <path d="M23.456 0.543812C23.4263 0.564339 23.404 0.639599 23.404 0.701176C23.404 0.762756 23.2999 0.885914 23.1734 0.968018C22.928 1.13223 22.7347 1.48118 22.7347 1.74802C22.7347 1.83697 22.6529 1.98065 22.5487 2.0696C22.4298 2.17223 22.3851 2.26118 22.4298 2.32276C22.4595 2.37749 22.4521 2.56223 22.4074 2.73328C22.3331 3.04118 22.3405 3.05486 22.5711 3.23276C22.9206 3.4996 22.8462 3.68434 22.2661 4.03329C21.4407 4.53276 20.8531 5.08697 20.5111 5.68908C20.3103 6.04486 20.2061 6.31855 20.2061 6.49645C20.2061 6.64013 20.1764 6.79066 20.1466 6.83855C20.0872 6.92066 19.3955 7.09171 19.336 7.03698C19.3137 7.02329 19.3583 6.9275 19.4253 6.83171C19.522 6.70171 19.5443 6.57855 19.5071 6.38013C19.4625 6.12013 19.4699 6.10645 19.6558 6.10645C19.8492 6.10645 19.8492 6.09961 19.8046 5.76434C19.7525 5.39487 19.8194 5.32644 20.0574 5.52486C20.1764 5.62066 20.1913 5.61381 20.2285 5.38118C20.2879 5.06644 20.1466 4.75855 19.7674 4.33434C19.6112 4.16329 19.455 3.94434 19.4253 3.84855C19.3955 3.75276 19.2319 3.54065 19.0609 3.37644L18.756 3.08223L19.0311 3.12328C19.2765 3.16434 19.2988 3.1575 19.2617 3.03434C19.1947 2.8017 18.8898 2.57592 18.4139 2.41854C18.109 2.30907 17.9453 2.22013 17.9007 2.11065C17.8338 1.94644 17.6999 1.88486 16.9934 1.69328C16.6737 1.60434 16.4877 1.59749 16.1977 1.64539L15.8184 1.70697L15.5953 1.32381C15.4689 1.11171 15.2904 0.851707 15.1937 0.742233L15.0227 0.536964L14.9632 1.06381C14.9409 1.35802 14.8665 1.63171 14.8144 1.68644C14.7624 1.73434 14.5021 1.79591 14.2418 1.81644C13.9146 1.85065 13.7361 1.90539 13.6543 1.99434C13.5874 2.0696 13.4089 2.17907 13.2527 2.23381C13.104 2.29539 12.7544 2.48013 12.4793 2.64434C11.7059 3.1096 11.215 3.34223 10.635 3.4996C10.2929 3.58855 10.0698 3.69802 10.0177 3.78013C9.98051 3.84855 9.94333 4.18381 9.94333 4.51907C9.94333 5.23066 10.0028 5.32644 10.449 5.26487C10.7168 5.2375 10.7316 5.24434 10.7093 5.38118C10.6201 5.79855 11.7282 5.90118 12.0703 5.51118C12.2116 5.34697 12.2859 5.32645 12.866 5.29908C13.3568 5.27855 13.5725 5.29223 13.7659 5.38118C13.9072 5.44276 14.0559 5.49065 14.1005 5.49065C14.3013 5.49065 14.1079 5.85329 13.5799 6.4896C13.1486 7.00276 12.4198 8.46698 12.2859 9.06224C12.2636 9.16487 12.0926 9.45224 11.9066 9.70539C11.7207 9.95855 11.5199 10.2938 11.4604 10.4443C11.4009 10.6017 11.2671 10.8754 11.1704 11.0601C11.0663 11.2517 10.9845 11.4843 10.9845 11.587C10.9845 11.6896 10.9473 11.8607 10.9101 11.9633L10.8283 12.148L10.0698 12.107C9.65329 12.0796 9.16246 12.0386 8.97654 12.018C8.67163 11.9838 8.6047 11.9975 8.38903 12.1686C8.1808 12.3259 8.06181 12.3601 7.71972 12.367C7.48918 12.3738 7.20658 12.4217 7.08015 12.4833C6.96116 12.5449 6.47777 12.9349 6.00925 13.3454C5.52586 13.7765 4.97553 14.1938 4.72268 14.3238C4.01618 14.6865 3.99387 14.7207 3.99387 15.2954C3.99387 15.5759 3.95669 15.9728 3.91207 16.1849C3.82282 16.5749 3.82282 16.5749 4.07568 16.8417C4.21697 16.9854 4.44008 17.2386 4.58138 17.3959L4.84167 17.6901L4.97553 17.5328C5.0499 17.4507 5.1912 17.1359 5.29531 16.8417C5.48123 16.3012 5.48123 16.3012 5.3325 16.1643C5.25069 16.0891 5.18376 15.9796 5.18376 15.9249C5.18376 15.8701 5.11683 15.7949 5.03503 15.7538C4.82679 15.6512 4.8491 15.5691 5.09452 15.528C5.22838 15.5007 5.37712 15.3912 5.49611 15.227C5.99437 14.5359 6.9686 13.8107 7.58586 13.6738C7.78665 13.6328 7.78665 13.6328 7.74203 13.9201C7.6751 14.358 7.52636 14.7891 7.27351 15.3296C6.99835 15.9112 6.98347 16.1165 7.22889 16.5543C7.32557 16.7322 7.45199 17.0333 7.50405 17.2249C7.58586 17.5396 7.80896 17.8749 7.94282 17.8749C7.97257 17.8749 8.27004 18.0322 8.59726 18.217L9.19965 18.5591L9.27401 18.388C9.37069 18.1554 9.37069 17.8886 9.26658 17.348C9.19965 17.0059 9.15502 16.917 9.05091 16.917C8.97654 16.917 8.86499 16.8417 8.79806 16.7528C8.72369 16.6433 8.59726 16.5749 8.44109 16.5612C8.21055 16.5407 8.04694 16.3696 8.26261 16.3696C8.44109 16.3696 8.47827 16.2465 8.50058 15.5212C8.52289 14.837 8.67163 14.0912 8.81293 13.9612C8.85755 13.9201 9.14759 14.0159 9.65329 14.2417C10.0772 14.4333 10.4937 14.5907 10.5755 14.5907C10.7837 14.5907 11.4679 14.8917 11.8695 15.1654C12.2264 15.4049 12.866 15.617 13.2304 15.617C13.5056 15.617 13.5056 15.788 13.223 16.137C12.6429 16.8622 12.1744 17.1017 11.1853 17.1701C10.5011 17.218 10.33 17.3001 10.4565 17.5191C10.5978 17.7654 10.9696 17.8886 11.7207 17.9433C12.1149 17.9707 12.5611 18.0459 12.7173 18.1007C12.8734 18.1622 13.0445 18.1965 13.0965 18.1759C13.2155 18.1349 13.3271 17.8954 13.4089 17.5328C13.4833 17.177 13.6171 16.9717 14.0708 16.5133C14.4575 16.137 14.5021 16.1096 14.7103 16.1643C14.8293 16.1986 15.2383 16.4859 15.6102 16.8144C16.4729 17.5601 16.986 17.8749 17.804 18.1486C18.3544 18.3333 19.5517 18.6343 20.3846 18.7986L20.6003 18.8396L20.3326 19.0038C20.1318 19.1338 20.0574 19.2365 20.0277 19.428C19.9607 19.7975 20.2285 20.8854 20.4739 21.2822C20.5854 21.4601 20.8308 21.8638 21.0168 22.1786C21.2027 22.5001 21.5745 22.9654 21.8497 23.2391C22.1174 23.5059 22.3628 23.8138 22.3926 23.9165C22.4669 24.2107 22.2141 24.6691 21.8422 24.8949L21.5299 25.0865L20.4516 24.8265C19.0609 24.498 18.0197 24.4296 14.5913 24.4501C13.1635 24.4638 10.3895 24.4433 8.44109 24.4159C5.14658 24.3612 4.87885 24.368 4.69293 24.4707C4.39546 24.6554 4.2021 25.1344 4.15748 25.8186C4.12773 26.3386 4.14261 26.4549 4.32109 26.8586C4.50701 27.2965 4.66318 28.3159 4.63344 28.9591C4.626 29.1917 4.63344 29.1986 4.98297 29.2465C5.4738 29.308 5.82333 29.4449 6.56701 29.8554C7.34044 30.2865 7.57842 30.5533 7.6156 31.0323C7.65279 31.4359 7.56354 31.6138 6.88679 32.5307C6.039 33.6733 4.8491 34.5081 2.69986 35.4659C1.77026 35.8765 1.39842 36.0817 1.14557 36.3212C0.104413 37.2928 -0.245118 39.3181 0.171344 41.9591C0.282896 42.6433 0.46138 43.4575 0.513438 43.4986C0.535748 43.5123 31.3391 43.4233 39.8394 43.3754L43 43.3617L42.9926 43.0196C42.9777 42.5749 42.5092 41.2954 41.9291 40.1117C41.0887 38.4149 39.6088 36.0133 37.8314 33.4612C37.11 32.428 36.9464 32.2433 36.6861 32.1202C36.2176 31.9149 35.5483 31.4223 34.8939 30.8065L34.2989 30.2454L34.7079 30.2865C35.2657 30.3344 35.7119 30.2523 35.7045 30.1017C35.6896 29.9991 35.816 29.9512 36.002 29.9786C36.1879 30.0128 36.649 29.8965 36.6192 29.828C36.5969 29.7802 36.5597 29.698 36.53 29.6365C36.4928 29.5475 36.5448 29.5133 36.7679 29.4723C37.0505 29.4244 37.0505 29.4244 36.8646 29.3354C36.701 29.2533 36.701 29.2465 36.8349 29.2191C36.9464 29.1986 36.9167 29.1644 36.6936 29.0617C36.4258 28.9454 36.2771 28.788 36.3589 28.7128C36.3812 28.6991 36.5374 28.7265 36.7085 28.788C37.0059 28.8838 37.0357 28.877 37.2439 28.7402C37.3629 28.658 37.4596 28.5828 37.4596 28.5691C37.4596 28.5554 37.1844 28.2886 36.8497 27.9738C35.5334 26.7491 34.8864 26.1128 34.7303 25.9075C34.3287 25.3807 33.637 23.2733 33.4511 22.0212C33.2801 20.8991 32.9231 19.9822 32.2687 18.9696C32.0307 18.6138 31.7778 18.2033 31.696 18.0596C31.4804 17.6628 30.7069 17.0333 30.2905 16.9101C29.9633 16.8144 29.9261 16.7733 29.7699 16.4312C29.584 16.0207 28.5949 14.4743 28.1859 13.9543C27.8438 13.5301 27.3529 13.188 26.8175 13.0101C26.4456 12.887 26.349 12.8117 26.1705 12.5449C25.8507 12.0659 25.5904 11.4228 25.3822 10.5607L25.1962 9.78066L25.3747 9.58224C25.4714 9.47277 25.5755 9.27434 25.6053 9.1375C25.7466 8.43276 25.3227 4.91592 25.0252 4.34118C24.936 4.17013 24.75 3.97171 24.5864 3.86908C24.4228 3.77328 24.2964 3.68434 24.2964 3.67065C24.2964 3.66381 24.4079 3.67065 24.5492 3.69118C24.7798 3.72539 24.817 3.70486 24.9285 3.50645C25.0624 3.26697 25.107 3.03434 25.1665 2.32276C25.1963 1.91223 25.1739 1.8096 25.0029 1.48118C24.8467 1.18697 24.7054 1.05013 24.3633 0.83802C24.1179 0.687492 23.8725 0.584862 23.8204 0.605389C23.7609 0.625916 23.694 0.612232 23.6643 0.571178C23.6122 0.489075 23.523 0.475391 23.456 0.543812ZM29.9038 19.428C30.0079 19.5717 30.1269 19.8522 30.1715 20.0438C30.2235 20.2491 30.3797 20.5707 30.5508 20.7965C30.9003 21.2686 30.9449 21.4191 31.1011 22.5275C31.2796 23.8754 31.8001 25.5038 32.7074 27.6112C33.0347 28.3501 33.2949 28.9728 33.2949 28.9933C33.2949 29.0138 33.109 28.8907 32.8859 28.7265C32.291 28.2749 31.6217 27.8712 31.1903 27.6933C30.7292 27.5086 28.9221 26.968 27.4124 26.5644L26.3192 26.2701L26.8472 25.5791C27.1373 25.2028 27.643 24.6075 27.9776 24.2723C28.3123 23.9301 28.6246 23.588 28.6692 23.5059C28.87 23.157 28.7287 22.8765 28.1784 22.5686C28.0074 22.4728 27.762 22.2607 27.6355 22.0965C27.3975 21.8022 26.9736 21.0428 26.9736 20.9196C26.9736 20.8786 27.167 20.8101 27.405 20.7622C28.2305 20.598 28.937 20.1601 29.3609 19.5512C29.4947 19.3459 29.636 19.1817 29.6658 19.1749C29.6955 19.1749 29.8071 19.2912 29.9038 19.428ZM24.6459 22.1238C24.8318 22.2812 25.1888 22.4933 25.4342 22.5959C25.8879 22.7875 26.2077 23.0338 26.3713 23.328C26.6092 23.7659 26.2895 24.5117 25.4863 25.3875L24.9731 25.9349L24.3187 25.7707C23.9617 25.6817 23.5676 25.5791 23.4486 25.5517C23.2478 25.5038 23.2775 25.4833 23.9171 25.237C24.4451 25.0386 24.6236 24.9359 24.7054 24.7854C24.8765 24.4844 24.8467 24.3817 24.4451 23.7933C24.051 23.2186 23.8799 22.7944 23.7981 22.1991L23.7535 21.8433H24.0361C24.2592 21.8433 24.3856 21.898 24.6459 22.1238Z" fill="black" stroke="black" stroke-width="2" mask="url(#path-1-inside-1_1292_87)"/>
</svg>
