<svg width="36" height="37" viewBox="0 0 36 37" fill="none" xmlns="http://www.w3.org/2000/svg">
<g clip-path="url(#clip0_10_592)">
<path fill-rule="evenodd" clip-rule="evenodd" d="M35.4872 18.4039C35.4872 23.1588 33.6352 27.4766 30.6208 30.6611C27.4368 34.0243 22.9563 36.1232 17.9903 36.1379C17.9729 36.1379 17.9554 36.1379 17.9379 36.1379C17.9205 36.1379 17.903 36.1379 17.8856 36.1379C12.9196 36.1232 8.43892 34.0243 5.25516 30.6611C2.24052 27.4766 0.388672 23.1588 0.388672 18.4039C0.388672 8.60971 8.24575 0.669922 17.9379 0.669922C27.6301 0.669922 35.4872 8.60971 35.4872 18.4039ZM28.5748 27.2709C26.0459 24.1762 22.2198 22.204 17.9379 22.204C13.6561 22.204 9.83002 24.1762 7.30095 27.2709C9.83002 30.3655 13.6561 32.3378 17.9379 32.3378C22.2198 32.3378 26.0459 30.3655 28.5748 27.2709ZM17.9382 19.6705C21.3997 19.6705 24.2058 16.8349 24.2058 13.337C24.2058 9.83905 21.3997 7.00341 17.9382 7.00341C14.4767 7.00341 11.6706 9.83905 11.6706 13.337C11.6706 16.8349 14.4767 19.6705 17.9382 19.6705Z" fill="#0B83D9"/>
</g>
<defs>
<clipPath id="clip0_10_592">
<rect width="35.0985" height="35.468" fill="white" transform="translate(0.388672 0.669922)"/>
</clipPath>
</defs>
</svg>
