<?xml version="1.0" encoding="UTF-8"?>
<!DOCTYPE svg PUBLIC "-//W3C//DTD SVG 1.1//EN" "http://www.w3.org/Graphics/SVG/1.1/DTD/svg11.dtd">
<svg xmlns="http://www.w3.org/2000/svg" version="1.1" width="29px" height="29px" style="shape-rendering:geometricPrecision; text-rendering:geometricPrecision; image-rendering:optimizeQuality; fill-rule:evenodd; clip-rule:evenodd" xmlns:xlink="http://www.w3.org/1999/xlink">
<g><path style="opacity:0.592" fill="#0c83d8" d="M 6.5,3.5 C 9.37401,3.62339 11.874,4.62339 14,6.5C 17.9196,2.6327 21.9196,2.6327 26,6.5C 28.0539,10.029 27.7205,13.3624 25,16.5C 21.8333,19.6667 18.6667,22.8333 15.5,26C 14.5,26.6667 13.5,26.6667 12.5,26C 7.52927,21.8725 3.52927,17.0391 0.5,11.5C 1.07715,7.64471 3.07715,4.97804 6.5,3.5 Z M 23.5,13.5 C 20.1667,16.1667 17.1667,19.1667 14.5,22.5C 10.8691,19.3707 7.36913,16.0374 4,12.5C 5.61397,5.31038 8.9473,4.64372 14,10.5C 20.0161,4.55829 23.1827,5.55829 23.5,13.5 Z"/></g>
<g><path style="opacity:0.651" fill="#0f85d7" d="M 23.5,13.5 C 21.2754,17.2347 18.442,20.568 15,23.5C 14.6012,23.2716 14.4346,22.9382 14.5,22.5C 17.1667,19.1667 20.1667,16.1667 23.5,13.5 Z"/></g>
</svg>
