<?xml version="1.0" encoding="UTF-8"?>
<!DOCTYPE svg PUBLIC "-//W3C//DTD SVG 1.1//EN" "http://www.w3.org/Graphics/SVG/1.1/DTD/svg11.dtd">
<svg xmlns="http://www.w3.org/2000/svg" version="1.1" width="38px" height="37px" style="shape-rendering:geometricPrecision; text-rendering:geometricPrecision; image-rendering:optimizeQuality; fill-rule:evenodd; clip-rule:evenodd" xmlns:xlink="http://www.w3.org/1999/xlink">
<g><path style="opacity:0.733" fill="#0b82d9" d="M 28.5,23.5 C 28.1667,22.5 27.5,21.8333 26.5,21.5C 31.0131,12.3672 28.3464,6.70054 18.5,4.5C 16.7927,4.72836 15.126,5.0617 13.5,5.5C 12.391,5.44312 11.391,5.10978 10.5,4.5C 17.6987,0.00361662 24.1987,1.00362 30,7.5C 32.3786,13.2441 31.8786,18.5774 28.5,23.5 Z"/></g>
<g><path style="opacity:0.797" fill="#0b83d9" d="M 15.5,9.5 C 22.4883,8.64781 24.8216,11.4811 22.5,18C 13.7794,20.4455 11.4461,17.6122 15.5,9.5 Z M 16.5,12.5 C 17.8333,12.5 19.1667,12.5 20.5,12.5C 20.7778,14.3464 20.1112,15.6798 18.5,16.5C 16.8888,15.6798 16.2222,14.3464 16.5,12.5 Z"/></g>
<g><path style="opacity:0.766" fill="#0b83d8" d="M 10.5,4.5 C 11.391,5.10978 12.391,5.44312 13.5,5.5C 8.8794,8.58936 7.3794,12.9227 9,18.5C 11.4553,23.085 14.622,27.085 18.5,30.5C 21.8692,28.0731 24.5359,25.0731 26.5,21.5C 27.5,21.8333 28.1667,22.5 28.5,23.5C 25.8991,27.7706 22.5658,31.4372 18.5,34.5C 11.7603,29.4976 7.42693,22.9976 5.5,15C 5.44893,10.6045 7.11559,7.10454 10.5,4.5 Z"/></g>
</svg>
