<svg width="721" height="190" viewBox="0 0 721 190" fill="none" xmlns="http://www.w3.org/2000/svg">
<path d="M175.681 10.5L291 81.8242L284.188 104.427L211.201 81.8242L182.493 120.5L127.51 87.8516L1 109.952L175.681 10.5Z" fill="#3B3939" stroke="white"/>
<path d="M540.5 1L422 72L429 94.5L504 72L533.5 110.5L590 78L720 100L540.5 1Z" fill="#3B3939" stroke="white"/>
<circle cx="357.5" cy="113" r="76.5" fill="#0D74BD"/>
<ellipse cx="335" cy="92.5" rx="6" ry="9" fill="#D9D9D9"/>
<ellipse cx="378" cy="92.5" rx="6" ry="9" fill="#D9D9D9"/>
<ellipse cx="337" cy="96" rx="2" ry="3.5" fill="#3B3939"/>
<ellipse cx="376" cy="96" rx="2" ry="3.5" fill="#3B3939"/>
<ellipse cx="359.5" cy="150" rx="30.5" ry="22.5" fill="#D9D9D9"/>
<ellipse cx="359.5" cy="152.5" rx="30.5" ry="20" fill="#0D74BD"/>
<path d="M345.5 144.5L340.5 136.5L345.5 133.5V144.5Z" fill="white"/>
<path d="M366.5 144.5V133.5H373L366.5 144.5Z" fill="white"/>
<path d="M345.5 144.5L340.5 136.5L345.5 133.5V144.5Z" stroke="white"/>
<path d="M366.5 144.5V133.5H373L366.5 144.5Z" stroke="white"/>
</svg>
