<?xml version="1.0" encoding="UTF-8"?>
<!DOCTYPE svg PUBLIC "-//W3C//DTD SVG 1.1//EN" "http://www.w3.org/Graphics/SVG/1.1/DTD/svg11.dtd">
<svg xmlns="http://www.w3.org/2000/svg" version="1.1" width="14px" height="28px" style="shape-rendering:geometricPrecision; text-rendering:geometricPrecision; image-rendering:optimizeQuality; fill-rule:evenodd; clip-rule:evenodd" xmlns:xlink="http://www.w3.org/1999/xlink">
<g><path style="opacity:0.788" fill="#0b83d9" d="M 6.5,-0.5 C 8.5,-0.5 10.5,-0.5 12.5,-0.5C 12.5858,0.495904 12.2524,1.32924 11.5,2C 7.61481,1.94229 4.61481,3.44229 2.5,6.5C 2.66667,7.16667 2.83333,7.83333 3,8.5C 6.66463,11.3995 10.1646,14.3995 13.5,17.5C 13.5,18.5 13.5,19.5 13.5,20.5C 11.4509,23.5497 8.78427,25.883 5.5,27.5C 3.5,27.5 1.5,27.5 -0.5,27.5C -0.5,26.8333 -0.5,26.1667 -0.5,25.5C 3.91703,24.793 7.5837,22.793 10.5,19.5C 6.83911,16.173 3.17244,12.8397 -0.5,9.5C -0.5,7.5 -0.5,5.5 -0.5,3.5C 1.73798,1.8845 4.07131,0.551166 6.5,-0.5 Z"/></g>
</svg>
